<svg fill="#000000" xmlns="http://www.w3.org/2000/svg"  viewBox="0 0 100 100" width="100px" height="100px"><path d="M 37.511719 7 C 35.525318 7 34.158543 7.0855851 33.091797 7.2871094 C 32.025051 7.4886336 31.239086 7.8356185 30.603516 8.2832031 C 30.085093 8.6490165 29.382543 9.240087 28.861328 10.212891 C 28.340113 11.185694 28 12.5117 28 14.341797 C 28 16.289219 28.744063 17.778691 29.789062 18.701172 C 30.834062 19.623653 32.108873 20 33.228516 20 L 35.962891 20 C 37.47907 20 38.711035 20.403652 39.833984 21.335938 C 40.956934 22.268221 41.976 23.781081 42.832031 26.050781 L 45.917969 34.269531 C 45.65658 34.83303 29.152722 70.40791 23.675781 82.658203 C 23.537477 82.967396 23 83.772268 23 84.84375 C 23 85.620426 23.313992 86.786175 24.404297 87.632812 C 25.494601 88.47945 27.211856 89 29.957031 89 C 32.259078 89 33.967617 88.641488 35.248047 87.982422 C 36.528477 87.323355 37.346186 86.335408 37.775391 85.298828 C 41.149247 77.151275 50.858391 55.9321 52.291016 52.796875 L 62.662109 85.162109 C 62.662109 85.162109 62.972268 86.266065 64.037109 87.207031 C 65.101951 88.147997 66.93227 89 69.830078 89 C 73.368228 89 75.347879 88.091358 76.308594 86.751953 C 77.269308 85.412548 77.035717 83.962157 76.78125 83.222656 C 71.317675 67.355986 56.757812 25.212891 56.757812 25.212891 A 1.0001 1.0001 0 0 0 56.755859 25.205078 C 54.316238 18.297557 51.746412 13.54305 48.804688 10.900391 C 45.900122 8.2911134 42.073777 7 37.511719 7 z M 37.511719 9 C 41.70366 9 44.961362 10.137949 47.466797 12.388672 C 49.935071 14.606013 52.482809 19.114602 54.869141 25.871094 C 54.872041 25.879594 69.426797 68.011313 74.888672 83.873047 C 74.996205 84.185546 75.130879 84.962343 74.683594 85.585938 C 74.236308 86.209531 73.031928 87 69.830078 87 C 67.311886 87 66.041487 86.310018 65.361328 85.708984 C 64.68117 85.10795 64.601562 84.669922 64.601562 84.669922 A 1.0001 1.0001 0 0 0 64.583984 84.611328 L 53.396484 49.695312 A 1.0001 1.0001 0 0 0 51.535156 49.583984 C 51.535156 49.583984 39.604765 75.653512 35.927734 84.533203 C 35.655939 85.189623 35.225101 85.743442 34.332031 86.203125 C 33.438963 86.662804 32.047985 87 29.957031 87 C 27.471207 87 26.211805 86.503847 25.630859 86.052734 C 25.049914 85.601622 25 85.188074 25 84.84375 C 25 84.549232 25.258257 84.019416 25.501953 83.474609 C 30.999691 71.1778 47.90625 34.728516 47.90625 34.728516 A 1.0001 1.0001 0 0 0 47.935547 33.957031 L 44.705078 25.345703 A 1.0001 1.0001 0 0 0 44.703125 25.34375 C 43.7662 22.859497 42.590128 21.02459 41.111328 19.796875 C 39.632528 18.56916 37.858711 18 35.962891 18 L 33.228516 18 C 32.577158 18 31.738079 17.754441 31.111328 17.201172 C 30.484577 16.647903 30 15.809375 30 14.341797 C 30 12.756893 30.287215 11.786697 30.625 11.15625 C 30.962785 10.525803 31.350282 10.204155 31.755859 9.9179688 C 32.185289 9.6155534 32.608137 9.4134289 33.462891 9.2519531 C 34.317644 9.0904774 35.585119 9 37.511719 9 z M 38.478516 13.03125 A 0.50005 0.50005 0 0 0 38.470703 14.029297 C 39.956536 14.116357 41.21655 14.414931 42.289062 14.912109 A 0.50005 0.50005 0 1 0 42.710938 14.005859 C 41.505437 13.447038 40.115464 13.12419 38.529297 13.03125 A 0.50005 0.50005 0 0 0 38.478516 13.03125 z M 35.505859 13.046875 A 0.50005 0.50005 0 0 0 35.470703 13.048828 C 34.993406 13.076418 34.661318 13.110541 34.427734 13.144531 A 0.50005 0.50005 0 1 0 34.572266 14.132812 C 34.764682 14.104812 35.072594 14.073285 35.529297 14.046875 A 0.50013734 0.50013734 0 0 0 35.505859 13.046875 z M 45.945312 16.994141 A 0.50005 0.50005 0 0 0 45.556641 17.789062 C 46.735781 19.45927 48.340457 22.393923 50.144531 27.5 C 50.14512 27.5017 50.415127 28.287516 50.890625 29.664062 A 0.5003204 0.5003204 0 1 0 51.835938 29.335938 C 51.35995 27.957977 51.087891 27.169922 51.087891 27.169922 L 51.085938 27.167969 C 49.260011 22.000046 47.623906 18.982731 46.373047 17.210938 A 0.50005 0.50005 0 0 0 45.945312 16.994141 z"/></svg>