<svg xmlns="http://www.w3.org/2000/svg" viewBox="0 0 24 24"><path fill="#303C42" d="M12.5 12.023V6.411c.832-.248 1.704-.021 2.622.222.689.182 1.391.368 2.111.368a3.53 3.53 0 001.472-.307.5.5 0 00.295-.456v-4.3a.501.501 0 00-.705-.456c-.921.411-1.891.156-2.917-.116-.93-.246-1.888-.491-2.878-.283V.5a.5.5 0 10-1 0v11.523C5.278 12.277.269 17.208 0 23.476a.5.5 0 00.479.521H.5V24h23v-.005c.007 0 .014.003.021.002a.5.5 0 00.479-.52c-.269-6.269-5.278-11.2-11.5-11.454z"/><circle fill="#CCC" cx="10.5" cy="22.5" r=".5"/><path opacity=".1" fill="#010101" d="M10.5 22.5c.183 0 .336.103.423.25A.486.486 0 0011 22.5a.5.5 0 00-1 0c0 .093.032.175.077.25a.493.493 0 01.423-.25z"/><path fill="#F3F3F3" d="M11.908 23c.056-.157.092-.324.092-.5a1.506 1.506 0 00-3.013 0c0 .176.036.343.093.5H1c.509-5.647 5.235-10.001 11-10.001S22.492 17.353 23 23H11.908z"/><path opacity=".2" fill="#FFF" d="M12.456 13.999a11.02 11.02 0 019.837 5.98A11.016 11.016 0 0012.002 13C6.236 12.999 1.509 17.353 1 23h.593c.943-5.153 5.443-9.001 10.863-9.001z"/><circle fill="#303C42" cx="16.5" cy="19" r="2"/><circle fill="#CCC" cx="16.5" cy="19" r="1"/><path opacity=".1" fill="#010101" d="M16 19.5c0-.551.449-1 1-1a.98.98 0 01.408.092A.999.999 0 0016.5 18c-.551 0-1 .449-1 1 0 .405.245.751.592.908A.985.985 0 0116 19.5z"/><circle fill="#303C42" cx="17" cy="22.5" r=".5"/><path fill="#303C42" d="M7.5 16c-.551 0-1 .449-1 1s.449 1 1 1 1-.449 1-1-.449-1-1-1z"/><path fill="#44B3E6" d="M12.5 2.11c.832-.248 1.705-.018 2.622.224.93.247 1.888.499 2.878.291v3.268c-.831.248-1.704.018-2.622-.225-.688-.183-1.39-.369-2.11-.369-.254 0-.51.024-.768.078V2.109z"/><path opacity=".1" fill="#010101" d="M15.378 4.835c-.688-.091-2.62-.36-2.878-.334v.876c.258-.054.514-.078.767-.078.72 0 1.423.186 2.111.369.918.243 1.791.473 2.622.225v-.945c-.831.124-1.704.009-2.622-.113z"/><path opacity=".2" fill="#FFF" d="M15.122 2.334c-.917-.242-1.79-.472-2.622-.225v.946c.832-.124 1.705-.01 2.622.112.93.124 1.888.438 2.878.334v-.876c-.99.208-1.948-.044-2.878-.29z"/><linearGradient id="a" gradientUnits="userSpaceOnUse" x1="4.982" y1="10.611" x2="25.582" y2="20.217"><stop offset="0" stop-color="#FFF" stop-opacity=".2"/><stop offset="1" stop-color="#FFF" stop-opacity="0"/></linearGradient><path fill="url(#a)" d="M12.5 12.023V6.411c.832-.248 1.704-.021 2.622.222.689.182 1.391.368 2.111.368a3.53 3.53 0 001.472-.307.5.5 0 00.295-.456v-4.3a.501.501 0 00-.705-.456c-.921.411-1.891.156-2.917-.116-.93-.246-1.888-.491-2.878-.283V.5a.5.5 0 10-1 0v11.523C5.278 12.277.269 17.208 0 23.476a.5.5 0 00.479.521H.5V24h23v-.005c.007 0 .014.003.021.002a.5.5 0 00.479-.52c-.269-6.269-5.278-11.2-11.5-11.454z"/></svg>