<svg xmlns="http://www.w3.org/2000/svg" viewBox="0 0 24 24"><path fill="#303C42" d="M23.748 13.066l-6.876-3.93-2.073-3.82A11.303 11.303 0 0012.384.18.505.505 0 0012 0a.505.505 0 00-.384.18 11.304 11.304 0 00-2.415 5.136l-2.073 3.82-6.876 3.93A.5.5 0 000 13.5v4a.5.5 0 00.43.495l6.919.988L9 19.81v.691a.5.5 0 00.5.5h5a.5.5 0 00.5-.5v-.69l1.651-.827 6.92-.988A.5.5 0 0024 17.5v-4a.5.5 0 00-.252-.434z"/><path fill="#F3F3F3" d="M12 1.31a10.31 10.31 0 012 6.095V17h-4V7.405c0-2.193.706-4.334 2-6.094z"/><path opacity=".1" fill="#010101" d="M12 1.31c-.05.069-.093.14-.141.21A12.17 12.17 0 0113 6.677V17h1V7.405c0-2.193-.706-4.334-2-6.094z"/><path fill="#F3F3F3" d="M7.724 18.053a.505.505 0 00-.154-.048L1 17.066V13.79l6.748-3.856a.492.492 0 00.191-.196L9 7.783v10.908l-1.276-.638zM10 18h4v2h-4z"/><path opacity=".1" fill="#010101" d="M12.975 18c-.065.56-.523 1-1.1 1H10v1h4v-2h-1.025z"/><path fill="#F3F3F3" d="M23 17.066l-6.57.939a.505.505 0 00-.154.048L15 18.69V7.783l1.06 1.955a.49.49 0 00.192.196L23 13.79v3.276z"/><path opacity=".1" fill="#010101" d="M7.57 16.814L1 15.875v1.191l6.57.939a.505.505 0 01.154.048L9 18.69V17.5l-1.276-.638a.505.505 0 00-.154-.048zM16.276 16.862L15 17.5v1.19l1.276-.637c.048-.024.1-.04.154-.048l6.57-.939v-1.19l-6.57.938a.505.505 0 00-.154.048z"/><path fill="#303C42" d="M12 7a.5.5 0 00.5-.5v-1a.5.5 0 10-1 0v1a.5.5 0 00.5.5zM10.5 21.5a.5.5 0 00-.5.5v1.5a.5.5 0 101 0V22a.5.5 0 00-.5-.5zM13.5 22a.5.5 0 00-.5.5v1a.5.5 0 101 0v-1a.5.5 0 00-.5-.5zM12 21.5a.5.5 0 00-.5.5v1a.5.5 0 101 0v-1a.5.5 0 00-.5-.5z"/><linearGradient id="a" gradientUnits="userSpaceOnUse" x1="2.541" y1="7.939" x2="23.872" y2="17.886"><stop offset="0" stop-color="#FFF" stop-opacity=".2"/><stop offset="1" stop-color="#FFF" stop-opacity="0"/></linearGradient><path fill="url(#a)" d="M23.748 13.066l-6.876-3.93-2.073-3.82A11.303 11.303 0 0012.384.18.505.505 0 0012 0a.505.505 0 00-.384.18 11.304 11.304 0 00-2.415 5.136l-2.073 3.82-6.876 3.93A.5.5 0 000 13.5v4a.5.5 0 00.43.495l6.919.988L9 19.81v.691a.5.5 0 00.5.5h5a.5.5 0 00.5-.5v-.69l1.651-.827 6.92-.988A.5.5 0 0024 17.5v-4a.5.5 0 00-.252-.434zM10.5 21.5a.5.5 0 00-.5.5v1.5a.5.5 0 101 0V22a.5.5 0 00-.5-.5zm3 .5a.5.5 0 00-.5.5v1a.5.5 0 101 0v-1a.5.5 0 00-.5-.5zm-1.5-.5a.5.5 0 00-.5.5v1a.5.5 0 101 0v-1a.5.5 0 00-.5-.5z"/></svg>